<svg width="153" height="101" viewBox="0 0 153 101" fill="none" xmlns="http://www.w3.org/2000/svg">
<path fill-rule="evenodd" clip-rule="evenodd" d="M131.975 53.0293C127.02 54.3995 120.906 55.8246 114.877 57.23C110.666 58.2115 106.497 59.1833 102.793 60.1201C97.9219 61.3525 93.8786 62.5352 91.4655 63.241C90.9065 63.4045 90.4349 63.5425 90.0609 63.6495C89.6771 63.7112 89.4298 64.0719 89.5104 64.4545C89.5754 64.8329 89.9432 65.0786 90.3311 65.0016C90.9553 64.9283 91.8486 64.8432 92.9627 64.737C95.5087 64.4944 99.2078 64.142 103.483 63.5699C108.289 62.9191 113.791 61.9413 119.186 60.9825C120.479 60.7527 121.767 60.524 123.036 60.3011C131.512 58.8202 139.179 57.3042 142.786 56.1819C142.966 56.1242 143.134 56.0491 143.294 55.9775C143.556 55.8601 143.798 55.752 144.038 55.7447C145.085 55.7079 145.573 55.4967 145.973 55.3235C146.218 55.2178 146.43 55.1262 146.716 55.0968C147.653 54.7603 147.855 54.0515 148.049 53.374C148.126 53.1038 148.201 52.8386 148.321 52.604C149.12 51.0612 148.18 49.2843 146.651 47.7113C146.068 47.1168 144.808 46.5915 143.566 46.0737C142.578 45.662 141.603 45.2551 140.987 44.8221C135.895 41.2976 130.685 37.8401 125.242 34.7475C120.362 31.9852 115.349 29.4667 110.248 27.1541C106.827 25.6018 103.373 24.2374 99.9033 22.8688C99.7913 22.8504 99.6829 22.8189 99.5751 22.7876C99.3752 22.7295 99.1777 22.672 98.9641 22.7003C97.8549 22.8684 97.5944 23.0907 97.2007 23.4267C96.9399 23.6493 96.6206 23.9218 95.9572 24.2615C95.7942 24.1852 95.6097 24.2508 95.5332 24.4109C95.4567 24.571 95.5245 24.7532 95.6875 24.8295C95.8437 25.5301 95.8442 25.9422 95.8447 26.2776C95.8454 26.8026 95.8458 27.1394 96.4427 28.0997C96.5439 28.2718 96.7074 28.3846 96.8746 28.4999C96.9532 28.5542 97.0326 28.6089 97.1067 28.6707C103.011 31.8566 108.783 35.3863 114.571 38.9261C115.269 39.3525 115.966 39.7791 116.664 40.2052C117.039 40.4339 117.413 40.6625 117.788 40.891C119.39 41.8687 120.992 42.846 122.588 43.8293C112.642 40.8211 102.493 38.5194 92.2718 37.303C83.5228 36.2658 74.7275 36.0204 66.0211 36.6849C51.5999 37.8108 37.3387 41.1948 23.9974 47.7944C15.6999 51.8993 7.9227 57.3574 0.438082 63.9602C0.31581 64.0424 0.305736 64.2038 0.389998 64.3248C0.47426 64.4457 0.653774 64.4608 0.760474 64.3744C7.29715 60.1772 13.9923 56.9414 20.7286 54.1104C31.2458 49.6949 41.8861 46.8057 52.7261 45.2826C65.0773 43.5389 77.5594 43.6026 90.0521 44.867C102.478 46.1301 114.909 48.4938 127.075 51.9028C127.407 51.9967 127.74 52.0983 128.073 52.2003C128.812 52.4263 129.555 52.6538 130.321 52.8014C130.879 52.9108 131.426 52.9787 131.975 53.0293ZM139.807 53.4839C140.558 53.7333 141.018 54.0694 140.745 54.5874C140.432 55.1931 140.07 54.2432 139.807 53.4839ZM139.895 49.9955C139.875 50.3183 139.797 50.6092 139.723 50.8848L139.718 50.9001C140.445 50.6181 140.997 50.3056 141.357 49.9587C141.501 49.8159 141.354 49.5957 141.26 49.4537C141.234 49.4156 141.212 49.3831 141.201 49.3592C140.986 49.3511 140.557 49.335 140.562 49.5006C140.535 49.7009 140.36 49.7432 140.196 49.7829C140.048 49.8185 139.91 49.852 139.895 49.9955Z" fill="url(#paint0_linear_175_1834)"/>
<defs>
<linearGradient id="paint0_linear_175_1834" x1="148.616" y1="51.3658" x2="57.1023" y2="130.018" gradientUnits="userSpaceOnUse">
<stop stop-color="#FFB946"/>
<stop offset="1" stop-color="#E1861F"/>
</linearGradient>
</defs>
</svg>
