<svg width="207" height="104" viewBox="0 0 207 104" fill="none" xmlns="http://www.w3.org/2000/svg">
<path d="M85.1945 15.7209C84.4029 15.0133 83.6655 14.4396 82.9822 13.9997C76.6206 9.90569 69.0487 11.1549 64.4279 16.6005C59.8693 21.972 59.8702 29.6656 64.4289 35.0765C69.0907 40.6107 76.4443 41.8325 82.9567 37.6709C83.5276 37.3182 84.3637 36.7531 85.465 35.9755C87.0852 37.8674 87.8999 38.823 87.9089 38.8424C80.8348 46.1038 69.3574 46.1083 62.1591 38.8424C54.9544 31.5701 55.1088 19.6701 62.4998 12.5339C69.8214 5.46443 80.9216 5.56406 87.9089 12.8199C87.9181 12.8483 87.0133 13.8153 85.1945 15.7209Z" fill="black"/>
<path fill-rule="evenodd" clip-rule="evenodd" d="M28.3388 39.2059C23.0859 37.2965 19.8942 33.2409 19.7622 27.966H51.1036C52.313 17.7453 45.626 9.16351 35.741 7.54568C26.6032 6.05032 17.3672 12.3983 15.0915 21.7369C12.8332 31.0061 18.7041 40.9553 27.9602 43.5475C37.4116 46.1946 47.5097 41.8745 50.1962 32.258C50.2248 32.2123 48.829 32.2123 46.009 32.258C45.1681 33.6202 44.545 34.5221 44.1398 34.9639C39.9669 39.513 33.9769 41.256 28.3388 39.2059ZM33.3267 11.5158C40.3813 11.601 45.8646 16.3781 46.7087 23.3781H19.4924C20.3833 16.2187 26.0597 11.4278 33.3267 11.5158Z" fill="black"/>
<path d="M4.42868 0V7.32746H11.5146V11.7588H4.42868V44.3137H0V0H4.42868Z" fill="black"/>
<path d="M205.817 44.3137V40.0648H185.461L206.517 7.32745H179.236V11.5067H198.263L177.207 44.3137H205.817Z" fill="black"/>
<path d="M98.4691 44.4094C98.4691 28.913 98.4691 21.1648 98.4691 21.1648C98.4691 21.1648 99.7067 18.2574 102.182 15.7282C104.657 13.199 107.845 11.9344 112.096 11.9344C115.896 11.9344 118.995 13.0112 121.046 15.1647C123.096 17.3183 124.121 20.4485 124.121 24.5553V44.4094H128.741V24.0294C128.741 18.5203 127.279 14.3258 124.353 11.4461C121.428 8.56632 117.138 7.12848 112.188 7.12848C108.888 7.12848 107.02 7.57596 104.469 8.82804C101.919 10.0801 99.9734 11.5814 98.4691 13.6323V0.0957794H93.8486V44.4094H98.4691Z" fill="black"/>
<path d="M166.34 7.30295C166.34 22.7329 166.34 30.4479 166.34 30.4479C166.34 30.4479 165.103 33.3511 162.628 35.8765C160.153 38.4019 156.964 39.6646 152.714 39.6646C148.914 39.6646 145.814 38.5894 143.764 36.4391C141.714 34.2887 140.689 31.1632 140.689 27.0625V7.30295H136.068V27.5876C136.068 33.0885 137.531 37.2767 140.456 40.1522C143.381 43.0277 147.672 44.2892 152.622 44.2892C155.922 44.2892 157.79 44.0165 160.34 42.7663C162.89 41.5161 164.836 40.0171 166.34 37.9692V44.2892H170.961V7.30295H166.34Z" fill="black"/>
<path d="M159.458 87.48C159.116 87.48 158.796 87.4053 158.498 87.256C158.22 87.1067 158.146 86.8293 158.274 86.424L162.434 73.56C162.498 73.3467 162.487 73.1653 162.402 73.016C162.338 72.8667 162.178 72.792 161.922 72.792C161.666 72.792 161.484 72.6747 161.378 72.44C161.292 72.184 161.282 71.9067 161.346 71.608C161.41 71.288 161.559 71.0107 161.794 70.776C162.028 70.52 162.338 70.392 162.722 70.392C163.511 70.392 164.087 70.5413 164.45 70.84C164.834 71.1173 165.068 71.4907 165.154 71.96C165.239 72.408 165.239 72.888 165.154 73.4C165.068 73.912 164.962 74.3813 164.834 74.808L164.194 76.728C164.855 75.704 165.527 74.808 166.21 74.04C166.914 73.2507 167.618 72.5893 168.322 72.056C169.026 71.5013 169.74 71.0853 170.466 70.808C171.191 70.5307 171.916 70.392 172.642 70.392C173.623 70.392 174.38 70.6373 174.914 71.128C175.447 71.5973 175.746 72.3013 175.81 73.24C175.874 74.1787 175.671 75.3413 175.202 76.728L172.802 83.672C172.674 84.0773 172.599 84.376 172.578 84.568C172.578 84.76 172.62 84.888 172.706 84.952C172.791 85.016 172.887 85.048 172.994 85.048C173.207 85.048 173.42 84.984 173.634 84.856C173.868 84.7067 174.114 84.504 174.37 84.248C174.647 83.9707 174.935 83.6507 175.234 83.288C175.404 83.0747 175.575 82.9573 175.746 82.936C175.916 82.8933 176.119 82.9573 176.354 83.128C176.695 83.3413 176.898 83.5547 176.962 83.768C177.047 83.9813 177.026 84.1947 176.898 84.408C176.706 84.728 176.396 85.1333 175.97 85.624C175.564 86.1147 175.052 86.552 174.434 86.936C173.815 87.2987 173.122 87.48 172.354 87.48C171.564 87.48 170.978 87.3093 170.594 86.968C170.231 86.6053 170.018 86.1573 169.954 85.624C169.89 85.0907 169.911 84.5253 170.018 83.928C170.146 83.3307 170.295 82.776 170.466 82.264L172.642 75.992C172.834 75.4373 172.951 74.936 172.994 74.488C173.058 74.0187 172.983 73.6453 172.77 73.368C172.578 73.0907 172.183 72.952 171.586 72.952C170.882 72.952 170.092 73.2613 169.218 73.88C168.364 74.4987 167.479 75.3627 166.562 76.472C165.666 77.5813 164.77 78.904 163.874 80.44C162.978 81.9547 162.146 83.6293 161.378 85.464L160.994 86.648C160.908 86.9253 160.748 87.128 160.514 87.256C160.3 87.4053 159.948 87.48 159.458 87.48Z" fill="black"/>
<path d="M147.618 89.56C147.383 89.7307 147.138 89.7627 146.882 89.656C146.604 89.5493 146.38 89.3787 146.21 89.144C146.039 88.9093 145.975 88.6427 146.018 88.344C146.039 88.0667 146.22 87.8213 146.562 87.608C147.927 86.6907 149.154 85.6987 150.242 84.632C151.308 83.5653 152.279 82.488 153.154 81.4C154.007 80.2907 154.786 79.2027 155.49 78.136C156.215 77.0693 156.908 76.0667 157.57 75.128C158.231 74.1893 158.892 73.368 159.554 72.664C160.236 71.96 160.951 71.4053 161.698 71C162.444 70.5947 163.276 70.392 164.194 70.392C164.578 70.392 164.855 70.52 165.026 70.776C165.218 71.0107 165.282 71.288 165.218 71.608C165.154 71.9067 164.972 72.184 164.674 72.44C164.375 72.6747 163.948 72.792 163.394 72.792C162.988 72.792 162.54 73.0053 162.05 73.432C161.559 73.8373 161.026 74.4027 160.45 75.128C159.874 75.8533 159.255 76.6853 158.594 77.624C157.932 78.5627 157.207 79.5653 156.418 80.632C155.65 81.6773 154.818 82.7333 153.922 83.8C153.004 84.8453 152.023 85.8693 150.978 86.872C149.932 87.8747 148.812 88.7707 147.618 89.56Z" fill="black"/>
<path d="M136.041 103.608C134.911 103.608 133.983 103.288 133.257 102.648C132.553 102.029 132.201 101.219 132.201 100.216C132.201 99.4693 132.351 98.7227 132.649 97.976C132.927 97.2507 133.343 96.5147 133.897 95.768C134.452 95.0213 135.145 94.2533 135.977 93.464C136.831 92.696 137.812 91.8853 138.921 91.032C139.476 90.6267 139.998 90.2427 140.489 89.88C141.001 89.5173 141.513 89.1547 142.025 88.792C142.537 88.4507 143.071 88.0987 143.625 87.736L145.545 81.784C144.628 83.0853 143.711 84.1627 142.793 85.016C141.897 85.8693 141.033 86.5093 140.201 86.936C139.369 87.3413 138.58 87.544 137.833 87.544C137.108 87.544 136.478 87.352 135.945 86.968C135.412 86.584 134.996 86.04 134.697 85.336C134.398 84.632 134.249 83.8 134.249 82.84C134.249 81.8587 134.398 80.8027 134.697 79.672C134.996 78.5413 135.444 77.432 136.041 76.344C136.639 75.256 137.364 74.264 138.217 73.368C139.07 72.472 140.052 71.7573 141.161 71.224C142.292 70.6693 143.529 70.392 144.873 70.392C145.3 70.392 145.737 70.4347 146.185 70.52C146.633 70.584 147.092 70.6907 147.561 70.84C148.031 70.9893 148.478 71.1707 148.905 71.384L149.001 71.192C149.108 70.936 149.268 70.7653 149.481 70.68C149.695 70.5733 149.972 70.52 150.313 70.52C150.975 70.52 151.391 70.6267 151.561 70.84C151.753 71.032 151.775 71.3413 151.625 71.768L144.041 95C143.529 96.536 143.006 97.848 142.473 98.936C141.94 100.024 141.364 100.909 140.745 101.592C140.126 102.296 139.422 102.808 138.633 103.128C137.865 103.448 137.001 103.608 136.041 103.608ZM136.521 101.144C137.161 101.144 137.759 100.931 138.313 100.504C138.868 100.077 139.39 99.3947 139.881 98.456C140.393 97.5387 140.873 96.344 141.321 94.872L142.505 91.256C142.207 91.448 141.908 91.6507 141.609 91.864C141.31 92.0773 141.012 92.2907 140.713 92.504C140.414 92.7173 140.116 92.9413 139.817 93.176C138.964 93.8587 138.228 94.5093 137.609 95.128C137.012 95.7467 136.521 96.3227 136.137 96.856C135.774 97.3893 135.497 97.8907 135.305 98.36C135.134 98.8507 135.049 99.32 135.049 99.768C135.049 100.024 135.103 100.259 135.209 100.472C135.316 100.685 135.476 100.845 135.689 100.952C135.924 101.08 136.201 101.144 136.521 101.144ZM138.761 84.984C139.508 84.984 140.361 84.6 141.321 83.832C142.303 83.0427 143.337 81.9013 144.425 80.408C145.535 78.9147 146.655 77.08 147.785 74.904L148.201 73.624C147.476 73.3253 146.793 73.1333 146.153 73.048C145.535 72.9627 144.959 72.92 144.425 72.92C143.508 72.92 142.665 73.1333 141.897 73.56C141.151 73.9867 140.478 74.552 139.881 75.256C139.305 75.9387 138.814 76.7067 138.409 77.56C138.004 78.392 137.695 79.224 137.481 80.056C137.268 80.888 137.161 81.6453 137.161 82.328C137.161 82.8613 137.225 83.3307 137.353 83.736C137.481 84.1413 137.663 84.4507 137.897 84.664C138.153 84.8773 138.441 84.984 138.761 84.984Z" fill="black"/>
<path d="M125.449 87.544C125.15 87.544 124.926 87.416 124.777 87.16C124.627 86.9253 124.574 86.6587 124.617 86.36C124.638 86.04 124.766 85.7627 125.001 85.528C125.235 85.272 125.577 85.144 126.025 85.144C126.579 85.144 127.166 84.9413 127.785 84.536C128.403 84.1307 129.043 83.5653 129.705 82.84C130.345 82.1147 131.006 81.2613 131.689 80.28C132.371 79.2987 133.065 78.232 133.769 77.08C133.939 76.8027 134.174 76.6853 134.473 76.728C134.771 76.7707 135.017 76.9093 135.209 77.144C135.401 77.3573 135.411 77.6027 135.241 77.88C134.323 79.48 133.449 80.888 132.617 82.104C131.806 83.32 131.017 84.3333 130.249 85.144C129.459 85.9333 128.681 86.5307 127.913 86.936C127.123 87.3413 126.302 87.544 125.449 87.544Z" fill="black"/>
<path d="M123.682 87.544C122.744 87.544 122.04 87.3733 121.57 87.032C121.122 86.6907 120.845 86.2533 120.738 85.72C120.632 85.1653 120.632 84.5893 120.738 83.992C120.845 83.3733 120.984 82.7973 121.154 82.264L124.674 71.544C124.824 71.1173 124.994 70.84 125.186 70.712C125.4 70.584 125.709 70.52 126.114 70.52C126.776 70.52 127.192 70.6267 127.362 70.84C127.554 71.032 127.576 71.3413 127.426 71.768L124.002 82.232C123.618 83.3627 123.437 84.1307 123.458 84.536C123.501 84.9413 123.768 85.144 124.258 85.144C124.557 85.144 124.781 85.272 124.93 85.528C125.08 85.7627 125.133 86.04 125.09 86.36C125.069 86.6587 124.941 86.9253 124.706 87.16C124.472 87.416 124.13 87.544 123.682 87.544ZM128.098 65.592C127.672 65.592 127.309 65.4533 127.01 65.176C126.712 64.8987 126.562 64.4933 126.562 63.96C126.562 63.384 126.744 62.84 127.106 62.328C127.49 61.816 128.077 61.56 128.866 61.56C129.314 61.56 129.688 61.6987 129.986 61.976C130.285 62.232 130.434 62.6373 130.434 63.192C130.434 63.768 130.242 64.312 129.858 64.824C129.496 65.336 128.909 65.592 128.098 65.592Z" fill="black"/>
<path d="M111.203 87.544C110.904 87.544 110.68 87.416 110.531 87.16C110.381 86.9253 110.328 86.6587 110.371 86.36C110.392 86.04 110.52 85.7627 110.755 85.528C110.989 85.272 111.331 85.144 111.779 85.144C112.291 85.144 112.877 84.888 113.539 84.376C114.179 83.864 114.936 83.064 115.811 81.976C116.685 80.8667 117.72 79.4267 118.915 77.656C120.109 75.864 121.507 73.6987 123.107 71.16C123.299 70.8613 123.544 70.7333 123.843 70.776C124.163 70.8187 124.419 70.9573 124.611 71.192C124.803 71.4267 124.813 71.6827 124.643 71.96C122.829 75.032 121.261 77.5813 119.939 79.608C118.637 81.6133 117.496 83.2027 116.515 84.376C115.533 85.528 114.627 86.3493 113.795 86.84C112.941 87.3093 112.077 87.544 111.203 87.544Z" fill="black"/>
<path d="M109.289 87.544C108.841 87.544 108.393 87.512 107.945 87.448C107.497 87.384 107.017 87.3413 106.505 87.32C106.014 87.2987 105.449 87.352 104.809 87.48L105.193 86.744C105.982 86.4027 106.686 86.1147 107.305 85.88C107.924 85.6453 108.446 85.464 108.873 85.336C109.321 85.208 109.652 85.144 109.865 85.144C110.057 85.144 110.185 85.272 110.249 85.528C110.313 85.7627 110.313 86.04 110.249 86.36C110.206 86.6587 110.1 86.9253 109.929 87.16C109.758 87.416 109.545 87.544 109.289 87.544ZM103.945 87.608C102.9 87.608 101.95 87.448 101.097 87.128C100.265 86.808 99.6889 86.4667 99.3689 86.104C99.0489 85.7627 98.8996 85.4747 98.9209 85.24C98.9423 84.984 99.0916 84.728 99.3689 84.472C99.6249 84.216 99.8489 84.0987 100.041 84.12C100.254 84.1413 100.532 84.2693 100.873 84.504C101.236 84.7387 101.662 84.952 102.153 85.144C102.665 85.3147 103.209 85.4 103.785 85.4C104.894 85.4 105.758 85.1333 106.377 84.6C106.996 84.0667 107.305 83.3307 107.305 82.392C107.305 81.8587 107.22 81.3253 107.049 80.792C106.878 80.2373 106.654 79.6827 106.377 79.128C106.1 78.5733 105.812 78.008 105.513 77.432C105.214 76.856 104.926 76.2587 104.649 75.64C104.372 75.0213 104.148 74.3813 103.977 73.72C103.806 73.0373 103.721 72.3333 103.721 71.608C103.721 70.4773 103.977 69.6773 104.489 69.208C105.022 68.7173 105.577 68.472 106.153 68.472C106.644 68.472 107.017 68.6107 107.273 68.888C107.55 69.144 107.689 69.4747 107.689 69.88C107.689 70.3067 107.518 70.7653 107.177 71.256C106.857 71.7467 106.516 72.2053 106.153 72.632C106.153 73.144 106.249 73.656 106.441 74.168C106.633 74.6587 106.878 75.1707 107.177 75.704C107.476 76.216 107.785 76.7387 108.105 77.272C108.446 77.8053 108.766 78.36 109.065 78.936C109.364 79.4907 109.609 80.0667 109.801 80.664C109.993 81.24 110.089 81.848 110.089 82.488C110.089 84.024 109.534 85.2613 108.425 86.2C107.337 87.1387 105.844 87.608 103.945 87.608Z" fill="black"/>
<path d="M88.2324 87.544C87.4858 87.544 86.8138 87.416 86.2164 87.16C85.5978 86.9253 85.0538 86.5947 84.5844 86.168C84.1151 85.7413 83.7204 85.24 83.4004 84.664C83.0804 84.0667 82.8458 83.4267 82.6964 82.744C82.5258 82.0613 82.4404 81.3573 82.4404 80.632C82.4404 79.8427 82.5258 78.9893 82.6964 78.072C82.8671 77.1333 83.1444 76.216 83.5284 75.32C83.9124 74.424 84.4031 73.6027 85.0004 72.856C85.5978 72.1093 86.3231 71.512 87.1764 71.064C88.0084 70.616 88.9791 70.392 90.0884 70.392C90.2804 70.392 90.3978 70.52 90.4404 70.776C90.4831 71.032 90.4618 71.3307 90.3764 71.672C90.2911 72.0133 90.1738 72.312 90.0244 72.568C89.8538 72.824 89.6724 72.952 89.4804 72.952C88.7551 72.952 88.1258 73.2187 87.5924 73.752C87.0591 74.2853 86.6218 74.9573 86.2804 75.768C85.9391 76.5787 85.6938 77.4213 85.5444 78.296C85.3738 79.1493 85.2884 79.9067 85.2884 80.568C85.2884 81.1653 85.3631 81.7307 85.5124 82.264C85.6618 82.7973 85.8858 83.2667 86.1844 83.672C86.4831 84.0773 86.8564 84.3973 87.3044 84.632C87.7311 84.8667 88.2324 84.984 88.8084 84.984C89.7471 84.984 90.7604 84.664 91.8484 84.024C92.9151 83.384 94.0351 82.456 95.2084 81.24C96.3818 80.0027 97.5871 78.5093 98.8244 76.76C100.062 75.0107 101.31 73.0267 102.568 70.808C102.654 70.616 102.835 70.5733 103.112 70.68C103.411 70.7867 103.667 70.9573 103.88 71.192C104.115 71.4053 104.179 71.6187 104.072 71.832C102.707 74.392 101.352 76.6533 100.008 78.616C98.6644 80.5787 97.3311 82.2213 96.0084 83.544C94.6858 84.8667 93.3738 85.8693 92.0724 86.552C90.7711 87.2133 89.4911 87.544 88.2324 87.544Z" fill="black"/>
<path d="M73.9497 87.544C73.6511 87.544 73.4271 87.416 73.2777 87.16C73.1284 86.9253 73.0751 86.6587 73.1177 86.36C73.1391 86.04 73.2671 85.7627 73.5017 85.528C73.7364 85.272 74.0777 85.144 74.5257 85.144C75.2084 85.144 76.0617 84.9627 77.0857 84.6C78.0884 84.216 79.1551 83.704 80.2857 83.064C81.4377 82.424 82.5364 81.7093 83.5817 80.92C84.5417 80.216 85.4057 79.4907 86.1737 78.744C86.9417 77.9973 87.5497 77.2613 87.9977 76.536C88.4671 75.8107 88.7017 75.1387 88.7017 74.52C88.7017 74.0293 88.5951 73.6453 88.3817 73.368C88.1684 73.0907 87.8484 72.952 87.4217 72.952C87.1231 72.952 86.8991 72.824 86.7497 72.568C86.6217 72.312 86.5791 72.0133 86.6217 71.672C86.6644 71.3307 86.8031 71.032 87.0377 70.776C87.2937 70.52 87.6457 70.392 88.0937 70.392C88.7337 70.392 89.3204 70.5307 89.8537 70.808C90.3871 71.064 90.8031 71.448 91.1017 71.96C91.4217 72.4507 91.5817 73.048 91.5817 73.752C91.5817 74.712 91.2724 75.7253 90.6537 76.792C90.0564 77.8373 89.2564 78.8827 88.2537 79.928C87.2511 80.952 86.1311 81.912 84.8937 82.808C83.6564 83.7253 82.3657 84.5467 81.0217 85.272C79.6991 85.976 78.4297 86.5307 77.2137 86.936C75.9764 87.3413 74.8884 87.544 73.9497 87.544Z" fill="black"/>
<path d="M46.5051 87.576C45.7158 87.576 44.9904 87.3947 44.3291 87.032C43.6678 86.6907 43.1344 86.2213 42.7291 85.624C42.3238 85.0053 42.1211 84.3227 42.1211 83.576C42.1211 82.936 42.2598 82.3493 42.5371 81.816C42.8358 81.2613 43.2731 80.824 43.8491 80.504C44.4251 80.1627 45.1398 79.992 45.9931 79.992C46.9318 79.992 47.8384 80.1093 48.7131 80.344C49.5878 80.5573 50.4304 80.8453 51.2411 81.208C52.0731 81.5707 52.8944 81.9547 53.7051 82.36C54.5158 82.7653 55.3158 83.1493 56.1051 83.512C56.9158 83.8747 57.7264 84.1733 58.5371 84.408C59.3478 84.6213 60.1798 84.728 61.0331 84.728C62.0998 84.728 63.1664 84.5147 64.2331 84.088C65.2998 83.64 66.3238 83.032 67.3051 82.264C68.3078 81.496 69.2251 80.5893 70.0571 79.544C70.9104 78.4987 71.6571 77.368 72.2971 76.152C72.9371 74.936 73.4278 73.6667 73.7691 72.344C74.1318 71.0213 74.3131 69.6987 74.3131 68.376C74.3131 66.5413 74.0251 64.9307 73.4491 63.544C72.8944 62.136 72.1051 60.9733 71.0811 60.056C70.0571 59.1173 68.8304 58.4133 67.4011 57.944C65.9931 57.4747 64.4251 57.24 62.6971 57.24C61.5238 57.24 60.4144 57.3253 59.3691 57.496C58.3451 57.6453 57.3851 57.88 56.4891 58.2C55.6144 58.52 54.8038 58.9253 54.0571 59.416C53.3104 59.8853 52.6384 60.44 52.0411 61.08C51.4438 61.6987 50.9104 62.4133 50.4411 63.224C50.2491 63.5653 50.0251 63.7573 49.7691 63.8C49.5131 63.8213 49.1824 63.7467 48.7771 63.576C48.4784 63.4053 48.2758 63.2027 48.1691 62.968C48.0838 62.712 48.1158 62.4347 48.2651 62.136C48.7771 61.1333 49.4064 60.2373 50.1531 59.448C50.8998 58.6373 51.7318 57.9227 52.6491 57.304C53.5878 56.6853 54.6118 56.1733 55.7211 55.768C56.8304 55.3627 58.0144 55.0533 59.2731 54.84C60.5318 54.6267 61.8438 54.52 63.2091 54.52C65.2571 54.52 67.1344 54.8187 68.8411 55.416C70.5691 56.0133 72.0624 56.8987 73.3211 58.072C74.5798 59.224 75.5504 60.6533 76.2331 62.36C76.9158 64.0453 77.2571 65.9973 77.2571 68.216C77.2571 69.7947 77.0438 71.3733 76.6171 72.952C76.2118 74.5093 75.6358 76.0027 74.8891 77.432C74.1638 78.8613 73.2891 80.184 72.2651 81.4C71.2624 82.5947 70.1424 83.64 68.9051 84.536C67.6891 85.432 66.3984 86.136 65.0331 86.648C63.6891 87.1387 62.3024 87.384 60.8731 87.384C59.7638 87.384 58.6651 87.224 57.5771 86.904C56.4891 86.584 55.4331 86.1893 54.4091 85.72C53.3851 85.2293 52.4038 84.7387 51.4651 84.248C50.5264 83.7573 49.6304 83.352 48.7771 83.032C47.9238 82.712 47.1238 82.552 46.3771 82.552C45.9291 82.552 45.5984 82.6587 45.3851 82.872C45.1718 83.064 45.0651 83.3307 45.0651 83.672C45.0651 84.1413 45.2571 84.4827 45.6411 84.696C46.0251 84.9093 46.3984 85.016 46.7611 85.016C47.4224 85.016 47.9451 84.888 48.3291 84.632C48.7344 84.3547 49.0864 83.9067 49.3851 83.288C49.6838 82.648 49.9931 81.7947 50.3131 80.728L56.5851 61.304C56.6918 61.0053 56.8731 60.7813 57.1291 60.632C57.3851 60.4827 57.7478 60.408 58.2171 60.408C58.7291 60.408 59.0918 60.4933 59.3051 60.664C59.5184 60.8133 59.5718 61.048 59.4651 61.368L53.1291 81.016C52.6171 82.6587 52.0518 83.96 51.4331 84.92C50.8358 85.8587 50.1424 86.5413 49.3531 86.968C48.5851 87.3733 47.6358 87.576 46.5051 87.576Z" fill="black"/>
<path d="M32.1667 88C31.0926 88 30.2963 87.7487 29.7778 87.2462C29.2593 86.7436 29 86.0436 29 85.1462C29 83.8179 29.2963 82.7949 29.8889 82.0769C30.5185 81.359 31.463 81 32.7222 81C33.8333 81 34.6481 81.2513 35.1667 81.7538C35.7222 82.2564 36 82.9385 36 83.8C36 85.1282 35.6852 86.1513 35.0556 86.8692C34.4259 87.6231 33.463 88 32.1667 88Z" fill="black"/>
</svg>
